<?xml version="1.0" standalone="no"?>
<!DOCTYPE svg PUBLIC "-//W3C//DTD SVG 20010904//EN"
 "http://www.w3.org/TR/2001/REC-SVG-20010904/DTD/svg10.dtd">
<svg version="1.0" xmlns="http://www.w3.org/2000/svg"
 width="1600.000000pt" height="1136.000000pt" viewBox="0 0 1600.000000 1136.000000"
 preserveAspectRatio="xMidYMid meet">

<g transform="translate(0.000000,1136.000000) scale(0.100000,-0.100000)"
fill="#000000" stroke="none">
<path d="M8688 10558 c-84 -147 -179 -245 -258 -269 -25 -8 -120 -10 -291 -6
-224 4 -268 8 -369 30 -468 104 -451 101 -650 101 -171 0 -192 -2 -284 -27
-168 -47 -305 -125 -405 -233 -103 -110 -131 -190 -131 -375 0 -134 12 -178
66 -250 62 -81 192 -173 494 -349 258 -150 315 -233 238 -351 -25 -39 -37 -49
-59 -49 -15 0 -155 11 -311 25 -156 13 -404 33 -553 45 -148 11 -517 41 -820
66 -501 42 -569 46 -765 41 -238 -6 -364 -23 -590 -80 -173 -44 -301 -91 -475
-177 -539 -263 -888 -685 -1006 -1215 -30 -133 -37 -428 -14 -565 64 -384 311
-778 645 -1027 92 -70 237 -150 328 -183 172 -62 226 -71 502 -80 230 -8 271
-7 418 12 89 12 165 18 168 15 3 -3 -6 -79 -20 -169 -80 -517 -88 -585 -77
-638 15 -70 50 -134 115 -210 31 -36 70 -92 88 -125 32 -59 33 -62 33 -190 0
-124 -1 -132 -27 -177 -15 -25 -45 -60 -66 -77 -61 -48 -194 -108 -352 -157
-80 -26 -169 -55 -199 -66 l-53 -20 6 -52 c33 -274 66 -695 66 -841 0 -198
-11 -259 -69 -373 -46 -91 -89 -148 -218 -286 -89 -95 -193 -228 -193 -248 0
-5 31 -55 70 -113 l69 -103 -15 -59 c-8 -32 -44 -108 -80 -170 -71 -122 -118
-228 -110 -248 2 -7 31 -26 63 -41 l58 -29 370 -7 c328 -6 395 -5 590 13 296
27 268 17 260 92 -12 110 -33 196 -120 489 -104 349 -115 407 -115 611 0 198
16 279 79 412 132 277 393 498 686 581 91 26 606 33 730 9 101 -19 375 -99
518 -152 54 -20 100 -34 102 -31 2 2 -5 87 -16 188 -29 269 -26 298 45 450 66
142 106 243 106 269 0 15 -11 19 -65 25 -302 31 -636 222 -940 537 -107 111
-166 184 -234 289 l-42 65 102 12 c158 19 264 54 489 163 253 123 316 139 531
140 182 0 220 -10 336 -94 48 -35 90 -60 91 -55 2 5 -21 76 -51 157 -67 177
-82 253 -74 381 9 161 67 289 186 414 198 208 522 344 996 419 110 18 190 21
527 25 353 4 403 3 448 -12 27 -9 50 -19 50 -22 0 -16 -93 -125 -235 -273
-359 -376 -479 -519 -546 -650 -33 -63 -34 -68 -37 -211 -3 -111 0 -162 12
-210 56 -222 256 -455 495 -577 143 -73 208 -85 438 -80 219 5 268 17 400 96
105 63 179 128 259 227 97 120 147 225 200 422 70 266 164 757 164 865 0 26 2
48 5 48 23 0 145 -68 210 -118 94 -71 281 -260 378 -382 174 -218 331 -491
402 -700 l40 -115 -1 -165 c0 -180 -8 -226 -65 -383 -61 -171 -197 -339 -390
-483 -52 -39 -104 -77 -116 -85 -13 -8 -23 -17 -23 -21 0 -4 69 -108 153 -230
307 -446 309 -450 297 -458 -6 -4 42 -10 108 -13 77 -4 134 -12 163 -23 216
-86 408 -321 485 -592 10 -37 18 -116 21 -222 6 -201 -6 -268 -73 -414 -76
-164 -96 -230 -102 -338 l-5 -97 31 -29 c32 -30 100 -56 192 -72 30 -6 249
-15 485 -20 459 -10 441 -11 750 41 177 29 175 28 175 49 0 28 -76 171 -154
290 -37 57 -172 250 -300 429 -128 179 -271 382 -318 451 -268 391 -438 712
-488 922 -29 121 -29 479 0 591 40 159 133 318 365 627 220 294 296 416 330
534 15 51 17 94 12 330 -5 294 -9 324 -82 594 -198 743 -845 2018 -1359 2681
-100 129 -257 288 -293 297 -78 20 -1132 -65 -1583 -127 -890 -123 -1211 -255
-1765 -729 -233 -199 -321 -267 -775 -600 -359 -263 -534 -386 -795 -561 -820
-550 -1452 -858 -1888 -918 -98 -14 -398 -14 -492 -1 -309 44 -520 233 -604
540 -40 146 -53 406 -27 552 18 97 87 246 163 348 237 318 705 609 1102 684
127 24 756 22 1191 -5 970 -58 1499 -27 1775 106 162 78 221 154 232 297 13
175 -37 324 -148 442 -75 81 -165 142 -359 246 -260 139 -296 176 -288 294 7
118 68 193 180 223 100 25 383 14 793 -32 377 -43 482 -33 683 65 77 38 118
66 166 113 81 79 90 108 84 277 -3 103 -7 132 -24 160 -18 32 -84 79 -109 80
-6 0 -27 -28 -47 -62z"/>
<path d="M8620 6493 c-622 -49 -1070 -259 -1230 -578 -60 -120 -83 -224 -78
-354 5 -98 9 -115 56 -237 28 -72 78 -193 112 -269 33 -76 58 -141 55 -144
-11 -10 -121 52 -230 129 -191 135 -274 167 -455 177 -155 8 -208 -3 -455 -93
-212 -77 -347 -113 -422 -114 -24 0 -43 -4 -43 -10 0 -5 20 -32 44 -59 160
-180 419 -349 721 -468 130 -51 344 -93 483 -93 39 0 52 -4 52 -14 0 -25 -50
-174 -100 -301 -57 -144 -105 -303 -121 -403 -10 -62 -9 -105 6 -265 25 -272
19 -430 -23 -557 -50 -151 -143 -301 -374 -599 -79 -103 -80 -104 -73 -150 37
-268 362 -555 818 -725 160 -60 374 -105 496 -106 106 0 161 61 337 377 168
301 297 464 475 598 141 106 212 137 439 194 107 27 221 60 253 74 71 32 137
94 284 264 114 133 159 175 201 188 21 6 105 -41 354 -201 102 -65 292 -155
385 -183 165 -48 279 -61 557 -61 135 0 246 3 246 8 -1 4 -66 99 -145 212
-152 216 -235 350 -305 490 -147 295 -381 545 -557 596 -41 12 -51 19 -45 30
15 28 123 100 235 159 230 121 319 187 407 303 88 118 140 295 140 482 0 268
-140 627 -359 920 -54 72 -205 230 -220 230 -4 0 -11 -69 -15 -153 -12 -295
-48 -515 -117 -714 -48 -138 -74 -192 -144 -298 -99 -149 -210 -246 -369 -321
-185 -87 -324 -108 -664 -102 -201 4 -235 7 -297 28 -371 120 -700 480 -777
848 -17 82 -19 121 -15 247 13 347 95 518 344 721 59 48 131 108 158 133 55
49 145 151 145 163 0 8 -78 8 -170 1z"/>
<path d="M9313 2232 c-260 -130 -473 -242 -473 -249 0 -6 35 -42 77 -80 182
-161 208 -212 222 -437 l6 -100 65 -20 c36 -10 66 -20 67 -21 2 -1 -27 -80
-63 -176 -36 -96 -81 -214 -100 -263 -18 -50 -32 -91 -30 -93 2 -2 207 -14
457 -28 250 -13 481 -26 514 -29 33 -3 148 -2 255 3 171 7 204 12 269 34 41
14 78 30 82 34 19 19 -131 236 -312 453 -396 474 -502 696 -544 1143 -4 37
-10 67 -13 66 -4 0 -220 -107 -479 -237z"/>
</g>
</svg>
