<?xml version="1.0" standalone="no"?>
<!DOCTYPE svg PUBLIC "-//W3C//DTD SVG 20010904//EN"
 "http://www.w3.org/TR/2001/REC-SVG-20010904/DTD/svg10.dtd">
<svg version="1.0" xmlns="http://www.w3.org/2000/svg"
 width="1182.000000pt" height="1280.000000pt" viewBox="0 0 1182.000000 1280.000000"
 preserveAspectRatio="xMidYMid meet">
<metadata>
Created by potrace 1.15, written by Peter Selinger 2001-2017
</metadata>
<g transform="translate(0.000000,1280.000000) scale(0.100000,-0.100000)"
fill="#000000" stroke="none">
<path d="M4950 12789 c-1014 -114 -1656 -985 -1945 -2639 -95 -548 -150 -1146
-176 -1915 -9 -281 -14 -343 -27 -357 -13 -15 -13 -18 -1 -18 9 0 62 -97 139
-252 68 -139 226 -459 352 -710 l227 -458 -37 0 c-20 0 -145 4 -277 10 -231 9
-504 19 -1060 40 -143 5 -324 13 -402 16 l-143 7 -51 81 c-186 292 -454 560
-662 660 -104 50 -186 69 -277 64 -168 -10 -280 -119 -342 -333 -21 -72 -23
-101 -23 -280 0 -180 3 -214 28 -333 69 -329 194 -641 376 -940 l63 -104 -56
-109 c-47 -93 -56 -118 -56 -163 0 -127 144 -227 248 -172 33 17 85 71 103
108 l14 26 88 -84 88 -84 -11 -36 c-20 -61 -16 -117 14 -168 73 -125 227 -126
309 -1 18 27 27 33 46 28 50 -12 157 -7 209 11 189 65 305 356 273 686 -4 47
-7 86 -6 88 1 1 51 -13 111 -32 152 -48 658 -208 844 -266 85 -27 315 -99 510
-160 995 -313 933 -291 953 -330 10 -19 178 -359 374 -755 195 -396 507 -1026
692 -1401 l337 -680 140 13 c944 89 1841 294 2619 598 1137 445 2105 1082
3123 2055 l142 136 -219 470 c-1424 3053 -1953 4189 -2283 4897 -215 460 -394
837 -398 837 -4 0 -46 -30 -94 -66 -48 -36 -89 -64 -91 -62 -3 2 27 44 66 92
39 48 67 91 63 96 -45 40 -463 370 -624 492 -1350 1020 -2458 1491 -3290 1397z
m507 -318 c706 -104 1556 -537 2602 -1324 152 -114 531 -415 531 -421 0 -2
-102 -3 -227 -2 -126 0 -290 -3 -365 -7 l-138 -8 -58 88 c-32 49 -64 103 -71
121 -7 18 -17 32 -21 32 -4 0 -12 -33 -19 -72 -6 -40 -16 -101 -22 -134 l-11
-62 -81 -12 c-167 -23 -413 -77 -607 -131 -779 -220 -1576 -627 -2435 -1243
l-150 -108 -54 12 c-30 7 -79 21 -109 31 l-54 19 5 -23 c15 -59 29 -159 24
-171 -3 -7 -73 -66 -156 -130 -193 -149 -377 -300 -669 -549 -129 -109 -236
-197 -238 -194 -5 4 10 354 26 612 104 1669 434 2767 991 3300 118 113 206
176 341 244 211 108 391 149 663 150 120 1 209 -5 302 -18z"/>
<path d="M622 4708 c-6 -29 -40 -109 -74 -178 -74 -150 -84 -210 -46 -274 74
-126 207 -138 297 -29 74 89 66 156 -38 308 -37 55 -79 128 -92 163 -13 34
-26 62 -29 62 -3 0 -11 -24 -18 -52z"/>
<path d="M1296 4139 c-9 -33 -41 -110 -72 -170 -84 -169 -88 -226 -19 -306 49
-58 110 -80 170 -63 54 15 111 68 137 128 31 69 9 138 -84 264 -27 38 -62 97
-77 133 -15 36 -30 67 -33 70 -2 3 -12 -22 -22 -56z"/>
<path d="M701 3945 c-7 -31 -40 -108 -73 -173 -76 -148 -85 -206 -44 -277 73
-124 217 -132 302 -16 18 25 36 61 40 80 10 52 -19 128 -86 222 -33 46 -73
114 -88 151 -15 37 -30 68 -33 68 -3 0 -11 -25 -18 -55z"/>
<path d="M141 3380 c-13 -40 -47 -121 -77 -179 -81 -158 -82 -222 -5 -304 82
-89 206 -71 280 40 52 78 38 155 -47 273 -60 81 -76 110 -106 184 l-23 59 -22
-73z"/>
<path d="M1181 3236 c-7 -30 -41 -112 -77 -182 -56 -110 -64 -134 -64 -182 0
-136 132 -230 246 -176 44 21 101 88 115 135 17 55 -9 129 -78 225 -31 43 -71
112 -89 152 -17 40 -34 75 -36 78 -3 2 -10 -20 -17 -50z"/>
<path d="M663 2638 c-7 -29 -41 -109 -75 -178 -73 -147 -83 -202 -49 -267 64
-127 206 -146 296 -40 78 91 71 158 -34 312 -37 55 -79 128 -92 163 -13 34
-26 62 -29 62 -3 0 -11 -24 -17 -52z"/>
<path d="M701 1915 c-7 -30 -40 -107 -73 -172 -76 -148 -85 -207 -44 -278 75
-128 222 -132 307 -9 59 87 47 158 -52 296 -32 45 -72 113 -87 150 -15 37 -30
68 -33 68 -3 0 -11 -25 -18 -55z"/>
<path d="M1461 1687 c-7 -28 -42 -111 -78 -184 -56 -113 -66 -141 -67 -187 0
-46 5 -62 30 -98 43 -62 87 -88 146 -88 61 0 96 18 142 72 78 91 68 161 -51
330 -30 42 -66 105 -80 140 -14 35 -26 64 -27 65 -1 2 -8 -21 -15 -50z"/>
<path d="M841 557 c-7 -28 -42 -111 -77 -182 -71 -142 -82 -201 -52 -260 34
-66 105 -115 165 -115 71 0 173 90 187 165 10 50 -20 128 -81 212 -31 43 -71
111 -89 151 -17 40 -34 75 -36 77 -2 3 -10 -19 -17 -48z"/>
</g>
</svg>
